<svg id="Layer_1" enable-background="new 0 0 512 512" height="512" viewBox="0 0 512 512" width="512" xmlns="http://www.w3.org/2000/svg"><g><path d="m452.754 110.208-83.097-83.097c-17.482-17.483-40.729-27.111-65.458-27.111-8.284 0-15 6.716-15 15s6.716 15 15 15h.033c9.461.009 17.101 7.671 17.101 17.117v34.283c0 42.6 34.534 77.133 77.133 77.133h34.283c9.446 0 17.108 7.64 17.117 17.101v.033c0 8.284 6.716 15 15 15s15-6.716 15-15c0-24.729-9.628-47.976-27.112-65.459z" fill="#ced7e6"/><path d="m304.2 512h-224.933c-25.989 0-47.133-21.144-47.133-47.133v-289.2c0-26.577 21.647-47.133 47.133-47.133h32.133c8.284 0 15 6.716 15 15v257.066c0 9.583 7.769 17.133 17.133 17.133h192.8c8.284 0 15 6.716 15 15v32.133c0 25.99-21.144 47.134-47.133 47.134z" fill="#0097f2"/><path d="m368.467 447.733h-224.934c-25.989 0-47.133-21.144-47.133-47.133v-289.2c0-26.574 21.646-47.133 47.133-47.133h32.134c8.284 0 15 6.716 15 15v257.067c0 9.583 7.769 17.133 17.133 17.133h192.8c8.284 0 15 6.716 15 15v32.133c0 25.989-21.144 47.133-47.133 47.133z" fill="#6bd1f4"/><path d="m432.732 128.533h-34.267c-25.989 0-47.133-21.144-47.133-47.133v-34.283c.001-26.065-21.095-47.117-47.116-47.117h-96.416c-26.278 0-47.133 21.325-47.133 47.133v289.2c0 26.278 21.325 47.133 47.133 47.133h224.933c26.338 0 47.134-21.39 47.134-47.133v-160.666c-.001-25.99-21.145-47.134-47.135-47.134z" fill="#f0f1f3"/><path d="m432.732 128.533h-34.267c-25.989 0-47.133-21.144-47.133-47.133v-34.283c0-20.419-12.948-37.758-31.066-44.313v380.663h112.466c26.338 0 47.134-21.39 47.134-47.133v-160.667c0-25.99-21.144-47.134-47.134-47.134z" fill="#dfe3ec"/><path d="m304.2 319.2c-5.016 0-9.698-2.506-12.48-6.68l-32.134-48.2c-4.596-6.893-2.733-16.206 4.16-20.801 6.892-4.596 16.205-2.733 20.801 4.16l19.653 29.479 51.786-77.679c4.595-6.893 13.908-8.755 20.801-4.161 6.894 4.595 8.756 13.909 4.16 20.801l-64.267 96.4c-2.781 4.175-7.464 6.681-12.48 6.681z" fill="#3cdc79"/><path d="m320.267 307.142 60.681-91.021c4.596-6.893 2.733-16.206-4.16-20.801-6.893-4.594-16.206-2.732-20.801 4.161l-35.72 53.58z" fill="#00ca77"/></g></svg>